# https://github.com/mikedh/trimesh
v -0.04982591 -0.00021831 0.60000002
v -0.04760455 0.01451945 0.60000002
v -0.04982591 -0.00021831 -0.60000002
v -0.04760455 -0.01495607 -0.60000002
v -0.04760455 -0.01495607 0.60000002
v -0.04113784 -0.02838431 -0.60000002
v -0.04113784 -0.02838431 0.60000002
v -0.03100039 -0.03930989 -0.60000002
v -0.03100039 -0.03930989 0.60000002
v -0.01809296 -0.04676200 -0.60000002
v -0.01809296 -0.04676200 0.60000002
v -0.00356241 -0.05007850 -0.60000002
v -0.00356241 -0.05007850 0.60000002
v 0.01130014 -0.04896471 -0.60000002
v 0.01130014 -0.04896471 0.60000002
v 0.02517409 -0.04351959 -0.60000002
v 0.02517409 -0.04351959 0.60000002
v 0.03682669 -0.03422695 -0.60000002
v 0.03682669 -0.03422695 0.60000002
v 0.04522254 -0.02191250 -0.60000002
v 0.04522254 -0.02191250 0.60000002
v 0.04961564 -0.00767042 -0.60000002
v 0.04961564 -0.00767042 0.60000002
v 0.04961564 0.00723380 -0.60000002
v 0.04961564 0.00723380 0.60000002
v 0.04522254 0.02147588 -0.60000002
v 0.04522254 0.02147588 0.60000002
v 0.03682669 0.03379032 -0.60000002
v 0.03682669 0.03379032 0.60000002
v 0.02517409 0.04308296 -0.60000002
v 0.02517409 0.04308296 0.60000002
v 0.01130014 0.04852808 -0.60000002
v 0.01130014 0.04852808 0.60000002
v -0.00356241 0.04964188 -0.60000002
v -0.00356241 0.04964188 0.60000002
v -0.01809296 0.04632538 -0.60000002
v -0.01809296 0.04632538 0.60000002
v -0.03100039 0.03887326 -0.60000002
v -0.03100039 0.03887326 0.60000002
v -0.04113784 0.02794769 -0.60000002
v -0.04113784 0.02794769 0.60000002
v -0.04760455 0.01451945 -0.60000002
f 37 35 36
f 36 35 34
f 4 5 1
f 1 3 4
f 22 24 25
f 25 23 22
f 10 13 11
f 12 13 10
f 8 10 9
f 9 10 11
f 32 35 33
f 34 35 32
f 28 30 31
f 29 28 31
f 30 32 31
f 31 32 33
f 39 36 38
f 37 36 39
f 6 9 7
f 8 9 6
f 7 5 6
f 5 4 6
f 27 26 28
f 27 28 29
f 24 26 27
f 27 25 24
f 16 18 19
f 17 16 19
f 15 14 16
f 15 16 17
f 12 14 15
f 15 13 12
f 41 39 40
f 40 39 38
f 2 3 1
f 2 42 3
f 2 40 42
f 41 40 2
f 20 40 38
f 12 10 20
f 20 24 22
f 20 14 12
f 34 32 20
f 20 36 34
f 28 26 20
f 20 4 3
f 20 30 28
f 38 36 20
f 20 26 24
f 3 42 20
f 16 14 20
f 20 18 16
f 20 10 8
f 20 32 30
f 8 6 20
f 20 6 4
f 42 40 20
f 1 5 21
f 21 35 37
f 7 9 21
f 21 15 17
f 17 19 21
f 21 5 7
f 21 27 29
f 37 39 21
f 33 35 21
f 29 31 21
f 23 25 21
f 11 13 21
f 21 9 11
f 21 31 33
f 21 39 41
f 25 27 21
f 21 2 1
f 13 15 21
f 41 2 21
f 22 23 21
f 21 20 22
f 21 19 18
f 18 20 21

